<svg xmlns="http://www.w3.org/2000/svg" xml:space="preserve" width="11in" height="11in" version="1.1" style="shape-rendering:geometricPrecision; text-rendering:geometricPrecision; image-rendering:optimizeQuality; fill-rule:evenodd; clip-rule:evenodd" viewBox="0 0 11000 11000" xmlns:xlink="http://www.w3.org/1999/xlink" xmlns:xodm="http://www.corel.com/coreldraw/odm/2003">
 <defs>
  <style type="text/css">
   
    .fil1 {fill:url(#id0)}
    .fil0 {fill:url(#id1)}
   
  </style>
  <linearGradient id="id0" gradientUnits="userSpaceOnUse" x1="6403.08" y1="1290.28" x2="858.04" y2="7390.75">
   <stop offset="0" style="stop-opacity:1; stop-color:#324B7A"></stop>
   <stop offset="0.741176" style="stop-opacity:1; stop-color:#197DB4"></stop>
   <stop offset="1" style="stop-opacity:1; stop-color:#00AFEF"></stop>
  </linearGradient>
  <linearGradient id="id1" gradientUnits="userSpaceOnUse" x1="9334.26" y1="3833.41" x2="3869.93" y2="9332.58">
   <stop offset="0" style="stop-opacity:1; stop-color:#078F50"></stop>
   <stop offset="1" style="stop-opacity:1; stop-color:#A8CF45"></stop>
  </linearGradient>
 </defs>
 <g id="Layer_x0020_1">
  <metadata id="CorelCorpID_0Corel-Layer"></metadata>
  <path class="fil0" d="M7350.11 4973.69c24.3,-3.79 178.35,-188.93 201.03,-209.94l639.17 546.48c-24.93,51.85 -113.81,126.5 -149.95,173.55l-15.81 27.79c-46.77,25.52 -82.99,79.44 -119.25,119.54 -38.35,42.41 -78.59,77.24 -108.54,123.43 -45.01,27.24 -123.24,127.81 -173.11,190.03 -82.91,103.46 -329.78,360.95 -442.31,485.94 -23.37,25.96 -74.74,69.72 -83.96,101.43 -54.96,30.84 -91.72,88.69 -134.08,135.06 -44.06,48.24 -80.88,89.04 -125.06,137.28 -48.6,53.07 -225.02,231.99 -244.48,275.98 -35.3,20.97 -172.9,189.52 -228.31,249.96 -45.5,49.63 -666.74,714.67 -675.63,749.72 -38.48,19.96 -33.57,23.61 -67.32,61.48 -59.82,67.12 -402.42,439.29 -418.2,475.11 -47.41,28.89 -157.64,164.59 -203.42,214.54l-605.52 662.96c21.97,39.5 288.93,261.64 345.67,311.46l1064.39 915.45c53.13,-46.36 764.87,-823.25 800.68,-887.56l460.67 -494.65c23.57,-26.69 17.24,-13.86 30.15,-45.61 54.37,-21.94 907.27,-989.51 916.5,-1009.31 28.83,-13.85 105.46,-106.1 128.21,-130.72 59.57,-64.44 352.11,-370 373.98,-417.7 38.55,-20.09 281.19,-295.63 340.81,-370.78 52.22,-65.82 115.48,-127.42 172.86,-190.44 42.79,-47 149.31,-147.14 170.38,-196.8 39.09,-19.74 96.5,-96.73 132.58,-135.99 41.39,-45.02 103.68,-96.02 127.56,-149.84 13.79,-5.89 3.43,1.59 21.64,-14.03 8.85,-7.59 16.06,-16.51 24.31,-25.7l304.14 -332.18c152.96,-171.7 1033.96,-1132.96 1045.76,-1164.76 -68.39,-53.59 -143.85,-135.09 -219.67,-191.4 -84.86,-63 -157.94,-130.51 -230.26,-193.54 -153.85,-134.11 -300.62,-260.56 -453.33,-395.71 -596.01,-527.44 -1206.64,-1045.47 -1803.78,-1571.01l-907.69 -777.92c-57.3,47.91 -126.86,132.5 -182.34,190.62l-1162.27 1270.02c-22.28,25.31 -74.26,71.66 -85.87,101.23 -39.73,21.49 -192.66,188.65 -219.08,229.1l-479.51 519.73c-41.02,28.3 -77.65,86.98 -115.73,127.53 -48.45,51.61 -329.9,335.1 -353.28,390.11 -22.49,6.14 -325.84,346.93 -344.27,366.32 -116.05,122.1 -227.93,249.72 -342,374.56 21.82,40.87 1164.46,1020.89 1385.78,1211.22 57.52,49.46 141.46,133.7 198.48,170.36l715.98 -789 321.04 -351.63c29.68,-32.6 87.79,-87.86 103.31,-123.67 13.03,-5.72 1.48,1.8 16.23,-10.08 6.37,-5.14 9.24,-8.02 15.01,-13.89 12.14,-12.34 16.82,-19.01 28.76,-32.08l405.85 -442.12c15.24,-21.82 7.06,-6.9 12.31,-24.1 50.54,-31.55 153.57,-155.18 190.8,-215.88z" data-index="0" style="opacity: 1;"></path>
  <path class="fil1" d="M3859.98 4434.3l337.05 -366.8c190.48,-206.88 516.5,-548.43 682.69,-750.29 113.09,-137.36 225.44,-253.46 340.69,-375.72 231.98,-246.07 450.31,-494.07 680.17,-742.93 28.82,-31.21 55.85,-57.97 81.63,-89.98l256.08 -288.25c58.18,-64.4 110.06,-120.7 168.26,-184.84 46.03,-50.75 141.76,-141.37 171,-191.52l-349.24 -307.15c-119.42,-104.55 -230.01,-204.11 -350.05,-306.79l-258.63 -226.41c-86.72,-70.6 -400.05,-325.86 -445.2,-385.53l-13.12 0.81c-161.91,201.52 -486.96,540.33 -666.89,740.2l-506.78 553.21c-56.78,61.7 -106.48,126.8 -163.89,188.52l-1343.61 1481.03c-65.7,56.85 -1137.65,1249.43 -1182.82,1299.91l-1179.11 1300.29c46.22,55.3 155.76,142.4 216.89,194.83 78.23,67.11 148.49,130.18 226.38,198.07 156.93,136.79 280.85,243.53 454.71,394l2715.13 2351.42c30.92,-18.67 590.32,-643.96 629.78,-687.48 56.08,-61.83 591.31,-632.18 620.06,-687.55 -103.22,-102.43 -413.92,-362.41 -547.1,-480.19 -184.7,-163.35 -365,-317.6 -549.21,-481.65l-1099.36 -956.55c21.01,-38.62 219.04,-247.19 263.53,-295.85 92.38,-101.02 177.89,-193.66 270.43,-294.87 152.16,-166.39 408.44,-434.39 540.54,-601.95z" data-index="1"></path>
 </g>
</svg>