<svg xmlns="http://www.w3.org/2000/svg" xml:space="preserve" width="9.5in" height="2.13in" version="1.1" style="shape-rendering:geometricPrecision; text-rendering:geometricPrecision; image-rendering:optimizeQuality; fill-rule:evenodd; clip-rule:evenodd" viewBox="0 0 9500 2130" xmlns:xlink="http://www.w3.org/1999/xlink" xmlns:xodm="http://www.corel.com/coreldraw/odm/2003">
 <defs>
  <style type="text/css">
   
    .fil0 {fill:#373435}
    .fil2 {fill:url(#id0)}
    .fil1 {fill:url(#id1)}
   
  </style>
  <linearGradient id="id0" gradientUnits="userSpaceOnUse" x1="1656.06" y1="242" x2="562.05" y2="1414.68">
   <stop offset="0" style="stop-opacity:1; stop-color:#324B7A"></stop>
   <stop offset="0.741176" style="stop-opacity:1; stop-color:#197DB4"></stop>
   <stop offset="1" style="stop-opacity:1; stop-color:#00AFEF"></stop>
  </linearGradient>
  <linearGradient id="id1" gradientUnits="userSpaceOnUse" x1="2234.36" y1="730.86" x2="1156.28" y2="1787.95">
   <stop offset="0" style="stop-opacity:1; stop-color:#078F50"></stop>
   <stop offset="1" style="stop-opacity:1; stop-color:#A8CF45"></stop>
  </linearGradient>
 </defs>
 <g id="Layer_x0020_1">
  <metadata id="CorelCorpID_0Corel-Layer"></metadata>
  <path class="fil0" d="M7380.95 1760.97l432.41 -0.09c-11.51,-39.55 -28.02,-46.83 -42.55,-129.1 -16.13,-91.27 -10.77,-314.27 -10.77,-422.55 0,-22.83 -2.55,-66.08 1.19,-86.46l543.32 0.07c3.24,18.98 1.06,315.78 1.06,343.37 -0.01,75.66 -2.52,161.52 -27.71,233.12 -6.52,18.55 -22.37,48.2 -25.48,61.61l432.69 -0.06c-3.35,-15.11 -21.14,-47.75 -28,-69.38 -27.72,-87.34 -25.08,-183.04 -25.08,-274.12l0 -791.48c0,-91.16 -2.68,-184.72 24.46,-272.24 8.52,-27.48 19.68,-47.57 29.21,-71.83l-433.72 0.04c19.61,51.78 29.4,57.36 41.82,123.86 9.36,50.07 11.48,101.41 11.78,153.35 0.63,110.69 -0.07,221.49 0.05,332.19l-545.54 -0.04c-0.54,-109.7 -0.21,-219.73 0.01,-329.57 0.22,-112.94 9.85,-188.32 54.02,-279.26l-433.79 -0.54c2.64,10.08 10.52,23.07 15.17,34.15 41.74,99.56 38.15,202.69 38.15,309.89l0 791.48c0,85.09 2.66,190.33 -24.04,271.9 -6.73,20.57 -26.24,58.59 -28.65,71.69z" data-index="0"></path>
  <path class="fil0" d="M4866.15 1543.48l-1.45 -823.67c-22.56,-5.54 -148.36,-1.4 -181.73,-1.44 -65.72,-0.09 -99.83,18.84 -125.31,55.44 -28.09,40.36 -18.44,105.65 -18.44,157.88 0,59.1 0.07,118.21 0.15,177.31 0.15,117.35 0.3,234.7 0.32,352.06 0.05,252.74 -45.83,253.79 -52.84,299.96 173.42,-3.38 348.79,1.56 522.51,-0.22 235.15,-2.43 433.94,-72.93 587.94,-220.14 39.53,-37.79 72.45,-75.88 103.15,-122.72 71.93,-109.74 111.24,-241.69 111.12,-396.3 -0.26,-324.82 -178.5,-521.11 -384.15,-634.72 -113.91,-62.92 -262.02,-99.07 -415.56,-104.26 -172.72,-5.83 -352.22,0.36 -525.87,-0.83 7.34,19.79 18.05,39.29 25.33,60.4 22.23,64.51 15.63,138.02 104.6,162.61 148.55,41.06 391.23,-82.61 624.95,72.69 158.67,105.44 226.52,298.98 217.78,486.74 -6.24,134.23 -52.41,255.5 -143.33,343.87 -134.8,131 -247.99,141.57 -449.17,135.34z" data-index="1"></path>
  <path class="fil0" d="M6139.59 512.85c184.39,0 377.17,-65.72 563.74,74.55 117.78,88.55 206.15,233.35 205.04,447.09 -0.91,175.84 -66.19,303.35 -158.61,388.54 -108.41,99.91 -232.28,135.26 -434.63,120.19l-1.33 -823.66c-35.49,-3.31 -157.45,-1.2 -201.52,-1.17 -68.53,0.04 -124.11,49.47 -124.09,123.38l0.54 634.73c-0.01,76.54 -2.89,153.11 -28.22,225.05 -6.81,19.33 -20.77,43.83 -25.04,59.43 174.9,-1.3 350.27,1.67 525.12,-0.19 296.62,-3.15 535.27,-117.69 689.76,-344.09 70.98,-104.03 110.47,-247.54 110.18,-397.61 -0.3,-156.88 -41.91,-283.56 -113.43,-391.93 -62.73,-95.03 -162.28,-182.09 -272.55,-241.41 -115.69,-62.24 -260.85,-97.98 -416.06,-103.17 -84.96,-2.84 -174,-0.7 -259.55,-0.7 -87.6,0 -176.31,-1.31 -263.78,0.08 3.56,12.07 20.17,42.18 30.24,75.7 8.28,27.58 11.77,59.08 23.8,85.13 24.2,52.41 74.9,70.06 150.39,70.06z" data-index="2"></path>
  <path class="fil0" d="M2876.89 1396.48l0.06 317.49c9.92,15 129.37,46.12 156.69,52 60.83,13.1 126.69,17.31 192.23,17.59 134.52,0.57 237.94,-33.69 320.94,-95.55 69.94,-52.13 139.93,-127.5 168.19,-240.99 40.76,-163.67 -10.93,-301.55 -116.64,-414.55l-51.12 -51.56c-5.2,-4.91 -8.62,-7.72 -13.89,-12.53 -5.08,-4.63 -7.69,-8.5 -12.89,-13.36 -31.94,-29.83 -137.17,-107.5 -174.19,-135.03 -31.02,-23.07 -82.65,-74 -99.38,-105.84 -63.47,-120.82 32.41,-214.94 151.67,-221.67 100.35,-5.66 165.09,26.13 234.02,77.93 21.05,15.81 34.62,34.74 53.86,49.47 3.74,-20.04 0.58,-224.81 1.2,-271.52 0.35,-26.77 -0.7,-24.18 -23.11,-34.67 -145.91,-68.26 -343.32,-69.04 -487.1,-16.57 -108.72,39.67 -199.07,116.3 -247.41,204.11 -77.3,140.43 -51.67,297.33 46.28,421.8 8.25,10.49 15.06,18.94 25.54,29.69 37.81,38.76 31.97,34.06 72.87,69.54l175.46 136.2c51.26,45.39 101.3,79.63 126.95,156.88 22.88,68.9 4.65,128.33 -33.52,171.29 -33.37,37.56 -86.99,65.8 -163.62,65.2 -73.02,-0.57 -127.81,-19.68 -179.96,-49.66 -66.74,-38.36 -112.11,-99.7 -123.12,-105.67z" data-index="3"></path>
  <path class="fil0" d="M3866.36 1760.81l433.01 0.07c-10.78,-37.94 -33.13,-52 -46.29,-152.94 -12.49,-95.77 -6.96,-475.44 -6.96,-586.31 0,-112.35 -5.59,-489.43 7.04,-586.93 11.14,-86.02 22.68,-87.49 46.51,-152.7l-433.44 -0.13c22.86,64.2 34.33,62.73 46.43,153.22 12.51,93.48 7.02,477.59 7.02,586.55 0,114.68 5.57,486.36 -6.76,586.62 -12.06,98 -35.8,115.03 -46.55,152.56z" data-index="4"></path>
  <path class="fil0" d="M9311.79 1760.13l0 0.17c-23.47,-28.35 -42.37,-107.35 -48.1,-150.61 -12.76,-96.37 -7.18,-476.56 -7.18,-588.06 0,-111.81 -5.52,-488.87 6.88,-585.71 8.12,-63.37 22.51,-100.29 46.63,-152.96l-433.33 -1.11c19.03,59 33.18,56.63 46.14,151.63 12.7,93.12 7.19,479.39 7.19,588.15 0,115.54 5.57,484.67 -6.62,585.97 -11.42,94.91 -43.27,137.08 -45.94,153.39l434.33 -0.86z" data-index="5"></path>
  <path class="fil1" d="M1842.9 950.05c4.8,-0.72 35.19,-36.31 39.66,-40.35l126.11 105.05c-4.92,9.97 -22.46,24.31 -29.59,33.36l-3.12 5.34c-9.23,4.91 -16.37,15.27 -23.53,22.98 -7.57,8.15 -15.51,14.85 -21.41,23.72 -8.88,5.24 -24.32,24.57 -34.15,36.53 -16.36,19.89 -65.06,69.39 -87.26,93.41 -4.61,4.99 -14.75,13.4 -16.57,19.5 -10.84,5.93 -18.1,17.05 -26.45,25.96 -8.69,9.27 -15.96,17.12 -24.68,26.39 -9.59,10.2 -44.39,44.59 -48.23,53.05 -6.96,4.03 -34.11,36.43 -45.04,48.05 -8.98,9.54 -131.54,137.38 -133.3,144.11 -7.59,3.84 -6.62,4.54 -13.28,11.82 -11.8,12.9 -79.39,84.44 -82.51,91.33 -9.35,5.55 -31.1,31.64 -40.13,41.24l-119.46 127.44c4.33,7.59 57,50.3 68.2,59.87l210 175.98c10.48,-8.91 150.91,-158.25 157.97,-170.61l90.89 -95.08c4.65,-5.13 3.4,-2.67 5.95,-8.77 10.73,-4.22 179,-190.21 180.82,-194.02 5.69,-2.67 20.81,-20.4 25.3,-25.13 11.75,-12.39 69.46,-71.13 73.78,-80.3 7.61,-3.86 55.48,-56.83 67.24,-71.27 10.3,-12.65 22.78,-24.49 34.11,-36.61 8.44,-9.04 29.46,-28.29 33.61,-37.83 7.71,-3.79 19.04,-18.59 26.16,-26.14 8.17,-8.65 20.46,-18.46 25.17,-28.81 2.72,-1.13 0.68,0.31 4.27,-2.7 1.74,-1.46 3.17,-3.17 4.8,-4.94l60 -63.85c30.18,-33.01 204,-217.79 206.32,-223.9 -13.49,-10.3 -28.38,-25.97 -43.34,-36.8 -16.74,-12.11 -31.16,-25.09 -45.43,-37.2 -30.35,-25.78 -59.31,-50.09 -89.44,-76.07 -117.59,-101.39 -238.06,-200.96 -355.88,-301.99l-179.08 -149.54c-11.31,9.21 -25.03,25.47 -35.98,36.65l-229.31 244.13c-4.39,4.87 -14.65,13.78 -16.94,19.46 -7.84,4.13 -38.01,36.26 -43.22,44.04l-94.6 99.91c-8.09,5.44 -15.32,16.72 -22.83,24.52 -9.56,9.92 -65.09,64.41 -69.7,74.99 -4.44,1.18 -64.28,66.69 -67.92,70.42 -22.89,23.47 -44.97,48 -67.48,72 4.31,7.86 229.74,196.24 273.41,232.83 11.35,9.51 27.91,25.7 39.16,32.75l141.26 -151.67 63.34 -67.59c5.85,-6.27 17.32,-16.89 20.38,-23.77 2.57,-1.1 0.3,0.35 3.2,-1.94 1.26,-0.99 1.82,-1.54 2.96,-2.67 2.39,-2.37 3.32,-3.65 5.67,-6.17l80.07 -84.99c3.01,-4.2 1.39,-1.33 2.43,-4.63 9.97,-6.06 30.3,-29.83 37.64,-41.5z" data-index="6"></path>
  <path class="fil2" d="M1154.31 846.37l66.5 -70.51c37.58,-39.77 101.9,-105.42 134.69,-144.22 22.31,-26.41 44.48,-48.72 67.22,-72.23 45.77,-47.3 88.84,-94.97 134.19,-142.81 5.69,-6 11.02,-11.15 16.11,-17.3l50.52 -55.41c11.48,-12.38 21.71,-23.2 33.2,-35.53 9.08,-9.76 27.97,-27.18 33.74,-36.81l-68.9 -59.05c-23.56,-20.09 -45.38,-39.23 -69.06,-58.97l-51.03 -43.52c-17.11,-13.57 -78.93,-62.64 -87.83,-74.11l-2.59 0.16c-31.94,38.74 -96.07,103.86 -131.57,142.28l-99.98 106.34c-11.2,11.86 -21.01,24.37 -32.33,36.24l-265.09 284.69c-12.96,10.93 -224.45,240.17 -233.36,249.88l-232.63 249.95c9.12,10.63 30.73,27.37 42.79,37.45 15.44,12.9 29.3,25.02 44.67,38.07 30.96,26.3 55.41,46.81 89.71,75.74l535.68 452c6.1,-3.59 116.46,-123.79 124.25,-132.15 11.07,-11.89 116.67,-121.52 122.33,-132.17 -20.36,-19.69 -81.66,-69.67 -107.94,-92.31 -36.44,-31.4 -72.01,-61.05 -108.36,-92.59l-216.89 -183.87c4.15,-7.42 43.21,-47.52 51.99,-56.87 18.22,-19.42 35.1,-37.23 53.35,-56.68 30.02,-31.98 80.58,-83.5 106.64,-115.71z" data-index="7"></path>
 </g>
</svg>