<svg xmlns="http://www.w3.org/2000/svg" xml:space="preserve" width="9.5in" height="4.13in" version="1.1" style="shape-rendering:geometricPrecision; text-rendering:geometricPrecision; image-rendering:optimizeQuality; fill-rule:evenodd; clip-rule:evenodd" viewBox="0 0 9500 4130" xmlns:xlink="http://www.w3.org/1999/xlink" xmlns:xodm="http://www.corel.com/coreldraw/odm/2003">
 <defs>
  <style type="text/css">
   
    .fil0 {fill:#373435}
   
  </style>
 </defs>
 <g id="Layer_x0020_1">
  <metadata id="CorelCorpID_0Corel-Layer"></metadata>
  <path class="fil0" d="M6588.14 2934.81l612.99 -0.14c-16.31,-56.06 -39.71,-66.38 -60.32,-183.01 -22.86,-129.39 -15.27,-445.52 -15.27,-599.01 0,-32.36 -3.61,-93.67 1.69,-122.56l770.22 0.09c4.58,26.91 1.51,447.65 1.5,486.76 -0.01,107.26 -3.57,228.98 -39.28,330.47 -9.24,26.29 -31.71,68.33 -36.12,87.34l613.37 -0.08c-4.75,-21.43 -29.97,-67.69 -39.7,-98.36 -39.29,-123.81 -35.55,-259.48 -35.55,-388.59l0 -1122.02c0,-129.23 -3.8,-261.86 34.67,-385.93 12.08,-38.95 27.89,-67.44 41.41,-101.82l-614.85 0.06c27.81,73.4 41.68,81.32 59.29,175.59 13.26,70.98 16.27,143.76 16.69,217.39 0.89,156.91 -0.11,313.98 0.07,470.91l-773.36 -0.06c-0.77,-155.51 -0.3,-311.49 0.01,-467.2 0.31,-160.11 13.96,-266.96 76.57,-395.89l-614.95 -0.76c3.74,14.3 14.93,32.7 21.51,48.42 59.17,141.13 54.08,287.33 54.08,439.3l0 1122.02c0,120.63 3.76,269.82 -34.07,385.45 -9.54,29.17 -37.2,83.06 -40.61,101.63z" data-index="0" style="opacity: 1; visibility: visible; fill: rgb(117, 117, 117);"></path>
  <path class="fil0" d="M3023.13 2626.51l-2.06 -1167.65c-31.97,-7.85 -210.32,-1.98 -257.63,-2.05 -93.17,-0.13 -141.52,26.72 -177.63,78.6 -39.82,57.21 -26.14,149.77 -26.14,223.81 -0,83.78 0.1,167.57 0.2,251.36 0.21,166.36 0.42,332.72 0.45,499.08 0.07,358.28 -64.97,359.78 -74.91,425.22 245.84,-4.79 494.45,2.22 740.72,-0.32 333.35,-3.44 615.17,-103.39 833.47,-312.07 56.04,-53.57 102.71,-107.57 146.23,-173.97 101.96,-155.57 157.7,-342.62 157.52,-561.81 -0.37,-460.46 -253.04,-738.73 -544.58,-899.78 -161.48,-89.2 -371.44,-140.45 -589.1,-147.8 -244.84,-8.27 -499.31,0.5 -745.48,-1.18 10.41,28.06 25.59,55.7 35.9,85.62 31.52,91.45 22.16,195.67 148.29,230.53 210.58,58.2 554.61,-117.12 885.93,103.05 224.94,149.47 321.11,423.83 308.72,690.01 -8.85,190.28 -74.28,362.2 -203.18,487.46 -191.09,185.7 -351.56,200.69 -636.74,191.87z" data-index="1" style="opacity: 1; visibility: visible; fill: rgb(117, 117, 117);"></path>
  <path class="fil0" d="M4828.37 1165.46c261.39,0 534.69,-93.17 799.16,105.69 166.96,125.53 292.25,330.8 290.67,633.79 -1.3,249.28 -93.83,430.04 -224.85,550.79 -153.68,141.64 -329.28,191.75 -616.14,170.38l-1.88 -1167.63c-50.31,-4.69 -223.2,-1.7 -285.67,-1.66 -97.15,0.06 -175.94,70.13 -175.92,174.9l0.77 899.8c-0.01,108.51 -4.09,217.06 -40,319.03 -9.65,27.41 -29.44,62.14 -35.5,84.24 247.94,-1.85 496.54,2.37 744.41,-0.27 420.49,-4.47 758.81,-166.85 977.8,-487.78 100.63,-147.47 156.6,-350.91 156.2,-563.66 -0.43,-222.4 -59.41,-401.97 -160.81,-555.59 -88.92,-134.72 -230.04,-258.13 -386.36,-342.22 -164,-88.23 -369.78,-138.89 -589.81,-146.26 -120.43,-4.03 -246.66,-0.99 -367.94,-0.99 -124.19,0 -249.94,-1.87 -373.93,0.12 5.04,17.11 28.59,59.8 42.87,107.32 11.74,39.1 16.68,83.75 33.74,120.69 34.3,74.3 106.18,99.31 213.2,99.31z" data-index="2" style="opacity: 1; visibility: visible; fill: rgb(117, 117, 117);"></path>
  <path class="fil0" d="M203.13 2418.11l0.07 450.07c14.07,21.26 183.4,65.38 222.13,73.72 86.24,18.57 179.59,24.55 272.51,24.94 190.7,0.81 337.3,-47.75 454.96,-135.45 99.15,-73.89 198.37,-180.74 238.43,-341.62 57.78,-232.02 -15.49,-427.48 -165.35,-587.67l-72.47 -73.09c-7.37,-6.96 -12.22,-10.95 -19.69,-17.77 -7.2,-6.57 -10.91,-12.06 -18.28,-18.94 -45.29,-42.28 -194.46,-152.39 -246.93,-191.42 -43.97,-32.71 -117.17,-104.9 -140.88,-150.04 -89.98,-171.28 45.94,-304.7 215.01,-314.24 142.25,-8.02 234.04,37.05 331.75,110.47 29.84,22.42 49.07,49.24 76.35,70.13 5.3,-28.41 0.82,-318.69 1.7,-384.92 0.5,-37.95 -0.99,-34.28 -32.77,-49.15 -206.84,-96.77 -486.69,-97.86 -690.52,-23.5 -154.12,56.24 -282.2,164.87 -350.72,289.36 -109.58,199.07 -73.24,421.49 65.61,597.94 11.7,14.87 21.34,26.85 36.2,42.08 53.61,54.95 45.33,48.28 103.3,98.57l248.73 193.08c72.66,64.34 143.59,112.88 179.96,222.39 32.44,97.67 6.59,181.92 -47.52,242.82 -47.3,53.25 -123.31,93.28 -231.95,92.43 -103.52,-0.81 -181.18,-27.9 -255.11,-70.39 -94.62,-54.39 -158.93,-141.33 -174.54,-149.81z" data-index="3" style="opacity: 1; visibility: visible; fill: rgb(117, 117, 117);"></path>
  <path class="fil0" d="M1605.82 2934.59l613.84 0.1c-15.28,-53.78 -46.97,-73.72 -65.63,-216.8 -17.7,-135.76 -9.87,-673.98 -9.87,-831.16 0,-159.27 -7.93,-693.82 9.98,-832.04 15.79,-121.94 32.15,-124.02 65.93,-216.48l-614.46 -0.19c32.41,91.02 48.66,88.93 65.83,217.21 17.72,132.51 9.95,677.04 9.95,831.5 0,162.57 7.9,689.47 -9.58,831.6 -17.09,138.92 -50.75,163.07 -65.99,216.26z" data-index="4" style="opacity: 1; visibility: visible; fill: rgb(117, 117, 117);"></path>
  <path class="fil0" d="M9325.31 2933.63l0 0.24c-33.27,-40.19 -60.06,-152.18 -68.19,-213.5 -18.09,-136.61 -10.18,-675.57 -10.18,-833.64 0,-158.5 -7.83,-693.02 9.76,-830.3 11.51,-89.84 31.91,-142.17 66.1,-216.84l-614.29 -1.58c26.97,83.65 47.04,80.28 65.41,214.96 18.01,132 10.19,679.59 10.19,833.77 0,163.79 7.89,687.07 -9.39,830.67 -16.19,134.56 -61.33,194.33 -65.13,217.46l615.71 -1.22z" data-index="5" style="opacity: 1; visibility: visible; fill: rgb(117, 117, 117);"></path>
 </g>
</svg>