<svg xmlns="http://www.w3.org/2000/svg" xml:space="preserve" width="11in" height="4.75in" version="1.1" style="shape-rendering:geometricPrecision; text-rendering:geometricPrecision; image-rendering:optimizeQuality; fill-rule:evenodd; clip-rule:evenodd" viewBox="0 0 11000 4750" xmlns:xlink="http://www.w3.org/1999/xlink" xmlns:xodm="http://www.corel.com/coreldraw/odm/2003">
 <defs>
  <style type="text/css">
   
    .fil0 {fill:#373435}
    .fil3 {fill:#F58634}
    .fil5 {fill:#FEFEFE;fill-rule:nonzero}
    .fil4 {fill:#373435;fill-rule:nonzero}
    .fil1 {fill:url(#id0)}
    .fil2 {fill:url(#id1)}
   
  </style>
  <linearGradient id="id0" gradientUnits="userSpaceOnUse" x1="2350.72" y1="1683.96" x2="1096.74" y2="2913.52">
   <stop offset="0" style="stop-opacity:1; stop-color:#078F50"></stop>
   <stop offset="1" style="stop-opacity:1; stop-color:#A8CF45"></stop>
  </linearGradient>
  <linearGradient id="id1" gradientUnits="userSpaceOnUse" x1="1678.06" y1="1115.34" x2="405.57" y2="2479.35">
   <stop offset="0" style="stop-opacity:1; stop-color:#324B7A"></stop>
   <stop offset="0.741176" style="stop-opacity:1; stop-color:#197DB4"></stop>
   <stop offset="1" style="stop-opacity:1; stop-color:#00AFEF"></stop>
  </linearGradient>
 </defs>
 <g id="Layer_x0020_1">
  <metadata id="CorelCorpID_0Corel-Layer"></metadata>
  <path class="fil0" d="M6632.97 2478.54l346.04 -0.08c-9.21,-31.65 -22.42,-37.47 -34.05,-103.31 -12.91,-73.04 -8.62,-251.49 -8.62,-338.14 0,-18.27 -2.04,-52.88 0.95,-69.19l434.79 0.06c2.59,15.19 0.85,252.7 0.85,274.78 -0,60.55 -2.02,129.26 -22.17,186.55 -5.22,14.84 -17.9,38.57 -20.39,49.3l346.25 -0.04c-2.68,-12.09 -16.92,-38.21 -22.41,-55.52 -22.18,-69.89 -20.07,-146.47 -20.07,-219.36l0 -633.38c0,-72.95 -2.15,-147.82 19.57,-217.86 6.82,-21.98 15.75,-38.07 23.38,-57.48l-347.09 0.03c15.7,41.43 23.53,45.9 33.47,99.12 7.49,40.07 9.19,81.15 9.43,122.72 0.5,88.57 -0.06,177.24 0.04,265.83l-436.56 -0.04c-0.44,-87.79 -0.17,-175.83 0,-263.74 0.18,-90.38 7.88,-150.7 43.23,-223.48l-347.14 -0.43c2.11,8.07 8.43,18.46 12.15,27.33 33.4,79.67 30.53,162.2 30.53,247.98l0 633.38c0,68.09 2.13,152.31 -19.23,217.59 -5.39,16.46 -21,46.89 -22.93,57.37z" data-index="0"></path>
  <path class="fil0" d="M4620.52 2304.5l-1.16 -659.14c-18.05,-4.44 -118.72,-1.12 -145.43,-1.16 -52.59,-0.07 -79.89,15.08 -100.27,44.37 -22.48,32.3 -14.76,84.55 -14.76,126.34 0,47.3 0.06,94.6 0.12,141.89 0.11,93.91 0.24,187.82 0.25,281.73 0.04,202.25 -36.68,203.09 -42.29,240.04 138.78,-2.7 279.12,1.25 418.14,-0.18 188.17,-1.94 347.26,-58.36 470.49,-176.16 31.63,-30.24 57.98,-60.72 82.55,-98.21 57.56,-87.82 89.02,-193.41 88.92,-317.14 -0.21,-259.93 -142.84,-417.01 -307.42,-507.93 -91.15,-50.35 -209.68,-79.28 -332.55,-83.43 -138.21,-4.67 -281.86,0.28 -420.82,-0.67 5.88,15.84 14.44,31.44 20.27,48.33 17.79,51.62 12.51,110.45 83.7,130.13 118.87,32.86 313.08,-66.11 500.11,58.17 126.98,84.38 181.27,239.26 174.28,389.52 -5,107.41 -41.94,204.46 -114.69,275.17 -107.87,104.83 -198.46,113.29 -359.44,108.31z" data-index="1"></path>
  <path class="fil0" d="M5639.57 1479.74c147.56,0 301.83,-52.59 451.13,59.66 94.25,70.86 164.97,186.74 164.08,357.78 -0.73,140.72 -52.96,242.76 -126.93,310.92 -86.75,79.96 -185.88,108.24 -347.81,96.18l-1.06 -659.13c-28.4,-2.65 -126,-0.96 -161.26,-0.94 -54.84,0.04 -99.32,39.59 -99.31,98.73l0.44 507.94c-0.01,61.25 -2.31,122.53 -22.58,180.09 -5.45,15.47 -16.62,35.07 -20.04,47.56 139.96,-1.05 280.3,1.33 420.22,-0.15 237.37,-2.52 428.35,-94.19 551.97,-275.35 56.81,-83.24 88.4,-198.09 88.17,-318.19 -0.24,-125.55 -33.54,-226.92 -90.78,-313.64 -50.2,-76.05 -129.86,-145.71 -218.1,-193.18 -92.58,-49.81 -208.74,-78.41 -332.95,-82.56 -67.99,-2.27 -139.24,-0.56 -207.7,-0.56 -70.1,0 -141.09,-1.06 -211.08,0.06 2.85,9.66 16.14,33.76 24.2,60.58 6.63,22.07 9.42,47.28 19.05,68.13 19.36,41.94 59.94,56.06 120.35,56.06z" data-index="2"></path>
  <path class="fil0" d="M3029.21 2186.19l0.04 253.88c7.93,11.99 103.45,36.88 125.3,41.58 48.64,10.47 101.3,13.85 153.72,14.07 107.57,0.46 190.26,-26.94 256.64,-76.41 55.93,-41.69 111.89,-101.95 134.49,-192.7 32.59,-130.88 -8.74,-241.14 -93.27,-331.5l-40.88 -41.22c-4.16,-3.93 -6.89,-6.18 -11.11,-10.02 -4.06,-3.7 -6.15,-6.8 -10.31,-10.69 -25.54,-23.85 -109.69,-85.96 -139.29,-107.97 -24.8,-18.45 -66.09,-59.18 -79.46,-84.63 -50.76,-96.61 25.91,-171.88 121.28,-177.26 80.24,-4.53 132.02,20.9 187.13,62.31 16.83,12.65 27.69,27.78 43.07,39.56 2.99,-16.02 0.46,-179.77 0.95,-217.12 0.28,-21.41 -0.56,-19.34 -18.48,-27.72 -116.67,-54.59 -274.54,-55.2 -389.5,-13.25 -86.94,31.72 -159.19,93 -197.84,163.22 -61.81,112.29 -41.31,237.76 37.01,337.28 6.6,8.39 12.04,15.15 20.42,23.74 30.24,31 25.57,27.24 58.27,55.6l140.3 108.91c40.99,36.3 81,63.67 101.52,125.44 18.3,55.1 3.71,102.62 -26.81,136.97 -26.68,30.04 -69.56,52.62 -130.83,52.14 -58.39,-0.46 -102.2,-15.74 -143.91,-39.71 -53.37,-30.68 -89.65,-79.72 -98.45,-84.5z" data-index="3"></path>
  <path class="fil0" d="M3820.44 2478.41l346.51 0.06c-8.63,-30.36 -26.52,-41.62 -37.04,-122.39 -9.99,-76.64 -5.57,-380.46 -5.57,-469.19 0,-89.91 -4.47,-391.67 5.63,-469.69 8.91,-68.83 18.15,-70.01 37.22,-122.2l-346.86 -0.11c18.3,51.37 27.47,50.2 37.16,122.61 10.01,74.81 5.62,382.19 5.62,469.39 0,91.77 4.46,389.2 -5.41,469.44 -9.65,78.42 -28.65,92.05 -37.25,122.08z" data-index="4"></path>
  <path class="fil0" d="M8178.11 2477.87l0 0.13c-18.78,-22.68 -33.91,-85.91 -38.49,-120.52 -10.21,-77.12 -5.75,-381.36 -5.75,-470.59 0,-89.47 -4.42,-391.21 5.51,-468.71 6.5,-50.72 18.01,-80.26 37.31,-122.41l-346.77 -0.89c15.22,47.22 26.56,45.32 36.93,121.35 10.17,74.52 5.76,383.63 5.76,470.67 0,92.46 4.45,387.85 -5.3,468.92 -9.14,75.95 -34.62,109.7 -36.76,122.75l347.57 -0.69z" data-index="5"></path>
  <path class="fil1" d="M1895.39 1938.92c5.58,-0.85 40.93,-42.24 46.13,-46.94l146.68 122.19c-5.72,11.59 -26.12,28.29 -34.41,38.8l-3.63 6.22c-10.73,5.7 -19.04,17.76 -27.37,26.72 -8.8,9.48 -18.04,17.27 -24.91,27.6 -10.33,6.09 -28.28,28.58 -39.72,42.49 -19.03,23.13 -75.68,80.7 -101.5,108.65 -5.37,5.8 -17.15,15.59 -19.27,22.68 -12.61,6.89 -21.05,19.83 -30.77,30.2 -10.11,10.78 -18.56,19.91 -28.7,30.7 -11.15,11.87 -51.64,51.87 -56.1,61.7 -8.1,4.69 -39.68,42.37 -52.39,55.89 -10.44,11.09 -153,159.79 -155.04,167.63 -8.83,4.46 -7.7,5.28 -15.45,13.74 -13.73,15.01 -92.35,98.22 -95.97,106.23 -10.88,6.46 -36.17,36.8 -46.68,47.97l-138.96 148.23c5.04,8.83 66.31,58.5 79.33,69.64l244.26 204.69c12.19,-10.37 175.52,-184.07 183.74,-198.45l105.72 -110.6c5.41,-5.97 3.95,-3.1 6.92,-10.2 12.48,-4.91 208.2,-221.24 210.32,-225.67 6.61,-3.1 24.2,-23.72 29.42,-29.23 13.67,-14.41 80.8,-82.73 85.82,-93.39 8.85,-4.49 64.53,-66.1 78.21,-82.9 11.98,-14.72 26.5,-28.49 39.67,-42.58 9.82,-10.51 34.26,-32.9 39.1,-44 8.97,-4.41 22.15,-21.63 30.43,-30.41 9.5,-10.07 23.8,-21.47 29.27,-33.5 3.17,-1.32 0.79,0.35 4.97,-3.14 2.03,-1.7 3.69,-3.69 5.58,-5.74l69.8 -74.27c35.1,-38.39 237.28,-253.32 239.98,-260.43 -15.7,-11.98 -33.01,-30.2 -50.41,-42.8 -19.47,-14.09 -36.25,-29.18 -52.84,-43.27 -35.31,-29.98 -68.98,-58.26 -104.03,-88.48 -136.78,-117.93 -276.9,-233.76 -413.94,-351.26l-208.3 -173.93c-13.15,10.71 -29.11,29.63 -41.84,42.62l-266.72 283.96c-5.11,5.66 -17.04,16.02 -19.7,22.63 -9.12,4.81 -44.21,42.18 -50.28,51.22l-110.04 116.21c-9.41,6.33 -17.82,19.45 -26.56,28.52 -11.12,11.54 -75.71,74.93 -81.07,87.22 -5.16,1.37 -74.78,77.57 -79,81.91 -26.63,27.3 -52.3,55.83 -78.48,83.75 5.01,9.14 267.22,228.26 318.02,270.81 13.2,11.06 32.46,29.89 45.55,38.09l164.31 -176.41 73.67 -78.62c6.81,-7.29 20.15,-19.65 23.71,-27.65 2.99,-1.28 0.34,0.41 3.72,-2.25 1.46,-1.15 2.12,-1.79 3.44,-3.11 2.78,-2.76 3.86,-4.25 6.6,-7.17l93.13 -98.85c3.5,-4.88 1.62,-1.54 2.83,-5.39 11.6,-7.05 35.24,-34.7 43.78,-48.27z" data-index="6"></path>
  <path class="fil2" d="M1094.46 1818.31l77.35 -82.02c43.71,-46.26 118.53,-122.62 156.67,-167.76 25.95,-30.71 51.74,-56.67 78.18,-84.01 53.24,-55.02 103.34,-110.47 156.09,-166.11 6.61,-6.98 12.81,-12.96 18.73,-20.12l58.77 -64.45c13.35,-14.4 25.26,-26.99 38.61,-41.33 10.56,-11.35 32.53,-31.61 39.24,-42.82l-80.15 -68.68c-27.4,-23.38 -52.78,-45.64 -80.33,-68.59l-59.35 -50.62c-19.9,-15.79 -91.81,-72.86 -102.17,-86.2l-3.01 0.18c-37.15,45.06 -111.75,120.81 -153.04,165.5l-116.3 123.69c-13.03,13.8 -24.44,28.35 -37.61,42.15l-308.33 331.14c-15.08,12.71 -261.07,279.36 -271.44,290.65l-270.59 290.73c10.61,12.37 35.74,31.84 49.77,43.57 17.95,15 34.07,29.1 51.95,44.28 36.01,30.59 64.45,54.45 104.35,88.09l623.07 525.76c7.09,-4.18 135.47,-143.98 144.52,-153.71 12.87,-13.83 135.7,-141.35 142.3,-153.73 -23.69,-22.91 -94.99,-81.03 -125.55,-107.37 -42.39,-36.52 -83.76,-71.01 -126.04,-107.69l-252.28 -213.87c4.82,-8.63 50.26,-55.27 60.48,-66.15 21.2,-22.59 40.82,-43.3 62.06,-65.93 34.92,-37.2 93.73,-97.13 124.04,-134.59z" data-index="7"></path>
  <path class="fil3" d="M5291.76 2717.82c176.32,0 319.25,136.17 319.25,304.14 0,167.97 -142.93,304.14 -319.25,304.14 -176.32,0 -319.25,-136.17 -319.25,-304.14 0,-167.97 142.93,-304.14 319.25,-304.14z" data-index="8"></path>
  <g id="_1491389536320">
   <path class="fil4" d="M3151.3 3225.73c94.85,0 157.88,-54.2 157.88,-143.99l0 -74.04c0,-6.42 -3.67,-9.91 -10.43,-9.91l-143.18 0c-6.73,0 -10.38,3.48 -10.38,9.91l0 47.81c0,6.42 3.65,9.91 10.38,9.91l64.87 0c2.46,0 3.65,1.76 3.65,3.51l0 25.66c0,38.47 -27.54,60.62 -69.74,60.62 -43.44,0 -75.9,-28.57 -75.9,-70.55l0 -135.26c0,-41.96 28.76,-70.53 72.84,-70.53 44.65,0 71.6,28.57 71.6,63.54l0 4.08c0,2.34 3.65,4.68 10.38,4.68l65.47 0c6.76,0 10.43,-3.51 10.43,-9.91l0 -1.17c0,-74.04 -63.03,-131.77 -157.88,-131.77 -95.5,0 -159.13,57.14 -159.13,143.42l0 130.6c0,85.69 63.63,143.39 159.13,143.39zm231.3 -4.65l276 0c6.73,0 10.43,-3.51 10.43,-9.91l0 -50.72c0,-6.42 -3.7,-9.93 -10.43,-9.93l-196.43 0c-2.46,0 -3.68,-1.15 -3.68,-3.48l0 -324.15c0,-6.42 -3.67,-9.91 -10.41,-9.91l-65.49 0c-6.71,0 -10.38,3.48 -10.38,9.91l0 388.28c0,6.4 3.67,9.91 10.38,9.91zm625.45 0l70.98 0c7.33,0 11.03,-4.65 8.57,-11.07l-130.36 -388.85c-1.81,-5.25 -5.52,-8.17 -11.63,-8.17l-89.93 0c-6.13,0 -9.81,2.91 -11.63,8.17l-130.36 388.85c-2.46,6.42 1.24,11.07 8.57,11.07l70.98 0c6.11,0 9.79,-2.91 11.63,-8.16l17.14 -54.23c0.62,-2.31 1.83,-2.91 3.67,-2.91l149.94 0c1.81,0 3.06,0.59 3.67,2.91l17.14 54.23c1.84,5.25 5.49,8.16 11.63,8.16zm-164.64 -132.92l54.46 -177.81c1.24,-2.91 3.7,-2.91 4.89,0l55.08 177.81c0.62,2.91 -0.62,4.08 -3.06,4.08l-108.31 0c-2.44,0 -3.68,-1.17 -3.08,-4.08zm417.96 137.57c96.09,0 156.67,-47.21 156.67,-118.33 0,-79.29 -77.11,-102.03 -132.77,-121.27 -67.95,-22.72 -94.85,-33.22 -94.85,-63.54 0,-27.4 22,-43.73 61.17,-43.73 51.41,0 78.95,28.57 78.95,58.88l0 5.82c0,3.51 3.67,5.83 10.38,5.83l64.28 0c6.73,0 10.38,-3.49 10.38,-9.91l0 -5.83c0,-75.2 -66.69,-125.35 -160.94,-125.35 -87.5,0 -149.31,43.72 -149.31,115.45 0,76.95 73.44,104.35 137.09,125.33 58.11,20.41 89.33,30.91 89.33,60.65 0,23.32 -17.14,45.47 -63.63,45.47 -49.6,0 -80.79,-25.66 -80.79,-55.4l0 -8.16c0,-4.65 -3.68,-7.57 -10.41,-7.57l-64.28 0c-6.71,0 -10.38,3.48 -10.38,9.91l0 9.91c0,74.04 63.03,121.84 159.1,121.84zm362.28 0c96.09,0 156.67,-47.21 156.67,-118.33 0,-79.29 -77.12,-102.03 -132.8,-121.27 -67.93,-22.72 -94.85,-33.22 -94.85,-63.54 0,-27.4 22.03,-43.73 61.2,-43.73 51.41,0 78.93,28.57 78.93,58.88l0 5.82c0,3.51 3.68,5.83 10.41,5.83l64.25 0c6.76,0 10.41,-3.49 10.41,-9.91l0 -5.83c0,-75.2 -66.69,-125.35 -160.94,-125.35 -87.52,0 -149.34,43.72 -149.34,115.45 0,76.95 73.44,104.35 137.09,125.33 58.14,20.41 89.36,30.91 89.36,60.65 0,23.32 -17.14,45.47 -63.65,45.47 -49.57,0 -80.79,-25.66 -80.79,-55.4l0 -8.16c0,-4.65 -3.65,-7.57 -10.41,-7.57l-64.25 0c-6.71,0 -10.41,3.48 -10.41,9.91l0 9.91c0,74.04 63.03,121.84 159.12,121.84zm1314.46 -413.33l-169.51 0c-6.73,0 -10.41,3.51 -10.41,9.93l0 388.85c0,6.4 3.67,9.91 10.41,9.91l65.49 0c6.7,0 10.38,-3.51 10.38,-9.91l0 -145.16c0,-2.34 1.84,-3.51 3.68,-3.51l86.3 0c83.2,0 138.89,-49.55 138.89,-123.59 0,-75.8 -53.82,-126.52 -135.23,-126.52zm-12.84 184.23l-77.11 0c-2.44,0 -3.68,-1.17 -3.68,-3.51l0 -106.09c0,-2.34 1.24,-3.51 3.68,-3.51l77.11 0c37.33,0 62.41,22.74 62.41,57.14 0,33.22 -25.09,55.97 -62.41,55.97zm211.73 224.45l275.98 0c6.73,0 10.43,-3.51 10.43,-9.91l0 -50.72c0,-6.42 -3.7,-9.93 -10.43,-9.93l-196.43 0c-2.44,0 -3.68,-1.15 -3.68,-3.48l0 -324.15c0,-6.42 -3.67,-9.91 -10.41,-9.91l-65.47 0c-6.73,0 -10.41,3.48 -10.41,9.91l0 388.28c0,6.4 3.67,9.91 10.41,9.91zm426.56 -0.57l64.85 0c6.73,0 10.41,-3.51 10.41,-9.93l0 -143.99c0,-1.17 0.59,-3.48 1.22,-4.66l124.85 -237.29c3.65,-6.4 0,-11.65 -7.97,-11.65l-71.6 0c-5.49,0 -9.76,2.91 -12.22,7.57l-74.66 151.58c-1.24,2.34 -3.7,2.34 -4.89,0l-74.66 -151.58c-2.46,-4.65 -6.73,-7.57 -12.24,-7.57l-70.98 0c-7.97,0 -11.03,5.25 -7.37,11.65l123.66 237.29c0.59,1.17 1.19,3.49 1.19,4.66l0 143.99c0,6.42 3.67,9.93 10.43,9.93zm352.48 0.57l62.44 0c6.11,0 9.76,-2.91 10.98,-8.74l56.93 -247.77c0.6,-3.51 4.3,-2.93 4.89,0l61.2 247.77c1.24,5.83 5.51,8.74 11.62,8.74l67.33 0c6.11,0 10.41,-2.91 11.62,-8.74l98.53 -388.28c1.83,-6.42 -1.22,-11.07 -8.57,-11.07l-66.71 0c-6.11,0 -9.79,2.91 -11.03,8.74l-55.06 232.61c-0.59,2.91 -3.65,3.51 -4.27,0l-59.98 -232.61c-1.22,-5.82 -5.49,-8.74 -11.63,-8.74l-69.17 0c-6.11,0 -9.79,2.91 -10.98,8.74l-55.11 232.61c-0.6,2.91 -4.27,2.91 -4.87,0l-57.52 -232.61c-1.24,-5.82 -4.92,-8.74 -11.03,-8.74l-69.79 0c-7.33,0 -11,4.65 -9.17,11.07l107.71 388.28c1.22,5.23 5.52,8.74 11.63,8.74zm566.69 6.42c97.31,0 161.56,-59.48 161.56,-148.1l0 -124.76c0,-87.45 -64.25,-146.33 -161.56,-146.33 -96.69,0 -160.96,58.88 -160.96,146.33l0 124.76c0,88.62 64.28,148.1 160.96,148.1zm0 -70.55c-44.68,0 -74.66,-29.74 -74.66,-74.61l0 -128.26c0,-45.47 29.98,-75.21 74.66,-75.21 45.3,0 75.25,29.74 75.25,75.21l0 128.26c0,44.87 -29.95,74.61 -75.25,74.61zm380.02 70.55c97.31,0 161.58,-59.48 161.58,-148.1l0 -124.76c0,-87.45 -64.28,-146.33 -161.58,-146.33 -96.66,0 -160.94,58.88 -160.94,146.33l0 124.76c0,88.62 64.28,148.1 160.94,148.1zm0 -70.55c-44.65,0 -74.66,-29.74 -74.66,-74.61l0 -128.26c0,-45.47 30,-75.21 74.66,-75.21 45.3,0 75.28,29.74 75.28,75.21l0 128.26c0,44.87 -29.98,74.61 -75.28,74.61zm238.08 64.13l149.94 0c92.39,0 152.96,-48.98 152.96,-123.59l0 -160.91c0,-74.61 -60.57,-123.59 -152.96,-123.59l-149.94 0c-6.73,0 -10.41,3.48 -10.41,9.91l0 388.28c0,6.4 3.68,9.91 10.41,9.91zm75.87 -74.04l0 -260.01c0,-2.34 1.24,-3.51 3.68,-3.51l72.82 0c39.19,0 64.25,26.25 64.25,66.47l0 134.09c-0.6,40.22 -25.7,66.45 -63.63,66.45l-73.44 0c-2.43,0 -3.68,-1.15 -3.68,-3.48zm564.83 78.69c94.87,0 158.5,-54.2 158.5,-135.83l0 -2.91c0,-1.74 -4.3,-2.34 -10.41,-2.91l-65.49 -2.91c-6.7,-0.6 -10.38,2.31 -10.38,6.39 0,40.24 -28.76,67.64 -72.22,67.64 -44.06,0 -72.82,-27.4 -72.82,-67.64l0 -140.48c0,-40.81 28.76,-68.22 72.82,-68.22 43.46,0 72.22,27.4 72.22,68.22l0 3.48c0,1.76 4.27,3.51 11.03,2.91l65.44 -4.08c6.16,-0.57 9.81,-2.91 9.81,-6.4 0,-81.03 -63.63,-134.69 -158.5,-134.69 -96.07,0 -159.1,55.97 -159.1,141.08l0 134.68c0,85.11 63.04,141.65 159.1,141.65zm518.95 -352.11l0 -50.72c0,-6.42 -3.7,-9.91 -10.41,-9.91l-276.63 0c-6.7,0 -10.38,3.48 -10.38,9.91l0 388.28c0,6.4 3.68,9.91 10.38,9.91l276.63 0c6.7,0 10.41,-3.51 10.41,-9.91l0 -50.72c0,-6.42 -3.7,-9.93 -10.41,-9.93l-197.05 0c-2.46,0 -3.68,-1.74 -3.68,-3.48l0 -93.28c0,-2.34 1.84,-3.51 3.68,-3.51l127.91 0c6.71,0 10.41,-3.48 10.41,-9.91l0 -50.72c0,-6.42 -3.7,-9.91 -10.41,-9.91l-127.91 0c-2.46,0 -3.68,-1.17 -3.68,-3.51l0 -89.19c0,-2.34 1.84,-3.51 3.68,-3.51l197.05 0c6.7,0 10.41,-3.49 10.41,-9.91zm70.36 347.46l64.87 0c6.73,0 10.43,-3.51 10.43,-9.91l-0.64 -240.78c0,-3.51 2.46,-4.08 4.3,-1.17l153.61 244.86c3.06,4.65 6.73,6.99 12.24,6.99l62.41 0c6.73,0 10.38,-3.51 10.38,-9.91l0 -388.28c0,-6.42 -3.65,-9.91 -10.38,-9.91l-64.28 0c-6.7,0 -10.38,3.48 -10.38,9.91l0 237.86c0,3.49 -2.46,4.08 -4.3,1.17l-152.97 -242.54c-3.08,-4.65 -6.75,-6.4 -12.27,-6.4l-63.03 0c-6.71,0 -10.38,3.48 -10.38,9.91l0 388.28c0,6.4 3.67,9.91 10.38,9.91zm684.8 -408.09l-302.33 0c-6.73,0 -10.41,3.48 -10.41,9.91l0 51.31c0,6.4 3.68,9.91 10.41,9.91l102.82 0c2.44,0 3.65,1.17 3.65,3.48l0 323.57c0,6.4 3.67,9.91 10.43,9.91l65.47 0c6.73,0 10.38,-3.51 10.38,-9.91l0 -323.57c0,-2.31 1.24,-3.48 3.7,-3.48l105.87 0c6.71,0 10.38,-3.51 10.38,-9.91l0 -51.31c0,-6.42 -3.67,-9.91 -10.38,-9.91zm362.86 60.63l0 -50.72c0,-6.42 -3.68,-9.91 -10.38,-9.91l-276.63 0c-6.7,0 -10.41,3.48 -10.41,9.91l0 388.28c0,6.4 3.7,9.91 10.41,9.91l276.63 0c6.7,0 10.38,-3.51 10.38,-9.91l0 -50.72c0,-6.42 -3.68,-9.93 -10.38,-9.93l-197.05 0c-2.46,0 -3.67,-1.74 -3.67,-3.48l0 -93.28c0,-2.34 1.81,-3.51 3.67,-3.51l127.91 0c6.71,0 10.38,-3.48 10.38,-9.91l0 -50.72c0,-6.42 -3.67,-9.91 -10.38,-9.91l-127.91 0c-2.46,0 -3.67,-1.17 -3.67,-3.51l0 -89.19c0,-2.34 1.81,-3.51 3.67,-3.51l197.05 0c6.7,0 10.38,-3.49 10.38,-9.91zm297.41 347.46l69.14 0c7.97,0 11.03,-5.25 7.38,-11.67l-80.79 -160.89c-1.24,-1.74 -0.62,-4.08 1.83,-4.68 48.33,-15.73 78.33,-55.37 78.33,-108.43 0,-73.44 -52.01,-123.01 -130.96,-123.01l-171.96 0c-6.71,0 -10.41,3.51 -10.41,9.93l0 388.85c0,6.4 3.7,9.91 10.41,9.91l65.49 0c6.7,0 10.38,-3.51 10.38,-9.91l0 -155.66c0,-2.34 1.24,-3.51 3.7,-3.51l55.66 0c1.86,0 3.68,1.17 4.3,2.93l75.28 158.55c2.43,4.68 6.7,7.59 12.22,7.59zm-147.45 -337.56l79.52 0c34.28,0 58.14,21.57 58.14,53.06 0,30.91 -23.87,51.89 -58.14,51.89l-79.52 0c-2.46,0 -3.7,-1.74 -3.7,-3.51l0 -97.93c0,-2.34 1.24,-3.51 3.7,-3.51z" data-index="9" style="opacity: 1;"></path>
   <path class="fil5" d="M5444.89 3208.83c-14.68,-15.15 -34.27,-35.56 -55.06,-59.45 -2.46,-2.34 -3.06,-4.08 -1.24,-5.85 17.14,-18.07 34.28,-39.05 50.79,-63.54 3.68,-5.83 1.84,-11.07 -3.65,-13.99l-47.14 -25.66c-6.11,-3.51 -11.03,-1.74 -14.68,3.48 -10.43,15.75 -22.65,30.91 -36.13,43.72 -1.2,1.77 -3.65,1.77 -4.87,0l-57.52 -60.62c-1.84,-1.74 -1.84,-3.48 0.59,-4.65 42.84,-24.49 81.39,-54.8 81.39,-107.86 0,-62.96 -55.06,-106.11 -130.34,-106.11 -75.28,0 -124.85,43.15 -124.85,107.86 0,23.32 7.97,41.39 50.19,88.05 1.22,1.74 1.22,3.48 -1.22,4.65 -41.6,25.06 -79.57,58.31 -79.57,114.25 0,71.72 61.82,102.61 132.82,102.61 40.98,0 82.61,-10.48 121.75,-33.8 1.86,-1.17 3.7,-1.17 5.52,0.57 6.75,6.99 14.08,15.15 22.05,23.31 3.65,3.51 7.95,5.25 12.87,5.25l72.2 0c8.57,0 12.22,-5.82 6.11,-12.24zm-215.4 -325.89c24.46,0 41.6,12.81 41.6,33.22 0,21.57 -18.95,37.3 -44.06,52.48 -1.84,1.15 -3.67,0.57 -5.49,-1.17 -28.17,-32.65 -33.06,-41.41 -33.06,-51.31 0,-19.81 15.92,-33.22 41,-33.22l0 0zm-9.81 273.43c-39.76,4.65 -64.23,-12.24 -61.79,-40.24 1.84,-22.15 20.19,-39.05 43.46,-53.63 1.81,-1.17 3.65,-1.17 5.49,0.6 10.41,10.48 21.41,22.72 33.65,34.96 15.92,15.75 18.38,18.67 33.06,34.39 1.84,1.76 1.84,3.51 -0.62,4.68 -18.35,10.48 -36.71,16.9 -53.25,19.24l0 0z" data-index="10"></path>
  </g>
 </g>
</svg>